# xmcd
#
# Track frame offsets:
#	150
#	13605
#	24870
#	37005
#	49810
#	62362
#	75140
#	87785
#	99960
#	110052
#	122085
#	137820
#
# Disc length: 1988 seconds
#
# Revision: 1
# Processed by: cddbd v1.4b42PL1 Copyright (c) Steve Scherf et al.
# Submitted via: CDmax 1.7.6
#
DISCID=8807c20c
DTITLE=Jim and Jesse - Our Kind Of Country
DYEAR=1900
DGENRE=
TTITLE0=Under Your Spell Again
TTITLE1=Wasted Words
TTITLE2=Foolin' Around
TTITLE3=The Voice Of My Darling
TTITLE4=Heartaches By The Number
TTITLE5=Heart Over Mind
TTITLE6=Lovin' Machine
TTITLE7=The Same Old Me
TTITLE8=Til These Dreams Come True
TTITLE9=I've Got A New Heartache
TTITLE10=The End Of My Rainbow
TTITLE11=Invitation To The Blues
EXTD=
EXTT0=
EXTT1=
EXTT2=
EXTT3=
EXTT4=
EXTT5=
EXTT6=
EXTT7=
EXTT8=
EXTT9=
EXTT10=
EXTT11=
PLAYORDER=
